####
#
# OBJ File Generated by Meshlab
#
####
# Object rubik_center.obj
#
# Vertices: 150
# Faces: 144
#
####
mtllib ./rubik_center.obj.mtl

vn 0.000000 -1.000000 0.000000
v -0.008281 -0.900000 0.004201 0.752941 0.752941 0.752941
vn 0.000000 1.000000 0.000000
v -0.008281 0.900000 0.004201 0.752941 0.752941 0.752941
vn 0.000000 -1.000000 0.000000
v 0.441719 -0.900000 0.004201 0.752941 0.752941 0.752941
vn 0.996035 0.000000 0.088961
v 0.441719 -0.900000 0.004201 0.752941 0.752941 0.752941
vn 0.996035 0.000000 -0.088961
v 0.441719 0.900000 0.004201 0.752941 0.752941 0.752941
vn 0.000000 1.000000 0.000000
v 0.441719 0.900000 0.004201 0.752941 0.752941 0.752941
vn 0.000000 -1.000000 0.000000
v 0.381431 -0.900000 -0.220799 0.752941 0.752941 0.752941
vn 0.907073 0.000000 -0.420973
v 0.381431 -0.900000 -0.220799 0.752941 0.752941 0.752941
vn 0.818110 0.000000 -0.575062
v 0.381431 0.900000 -0.220799 0.752941 0.752941 0.752941
vn 0.000000 1.000000 0.000000
v 0.381431 0.900000 -0.220799 0.752941 0.752941 0.752941
vn 0.000000 -1.000000 0.000000
v 0.216719 -0.900000 -0.385510 0.752941 0.752941 0.752941
vn 0.575060 0.000000 -0.818111
v 0.216719 -0.900000 -0.385510 0.752941 0.752941 0.752941
vn 0.420974 0.000000 -0.907073
v 0.216719 0.900000 -0.385510 0.752941 0.752941 0.752941
vn 0.000000 1.000000 0.000000
v 0.216719 0.900000 -0.385510 0.752941 0.752941 0.752941
vn 0.000000 -1.000000 0.000000
v -0.008281 -0.900000 -0.445799 0.752941 0.752941 0.752941
vn 0.088963 0.000000 -0.996035
v -0.008281 -0.900000 -0.445799 0.752941 0.752941 0.752941
vn -0.088963 0.000000 -0.996035
v -0.008281 0.900000 -0.445799 0.752941 0.752941 0.752941
vn 0.000000 1.000000 0.000000
v -0.008281 0.900000 -0.445799 0.752941 0.752941 0.752941
vn 0.000000 -1.000000 0.000000
v -0.233281 -0.900000 -0.385510 0.752941 0.752941 0.752941
vn -0.420975 0.000000 -0.907072
v -0.233281 -0.900000 -0.385510 0.752941 0.752941 0.752941
vn -0.575061 0.000000 -0.818110
v -0.233281 0.900000 -0.385510 0.752941 0.752941 0.752941
vn 0.000000 1.000000 0.000000
v -0.233281 0.900000 -0.385510 0.752941 0.752941 0.752941
vn 0.000000 -1.000000 0.000000
v -0.397992 -0.900000 -0.220799 0.752941 0.752941 0.752941
vn -0.818110 0.000000 -0.575061
v -0.397992 -0.900000 -0.220799 0.752941 0.752941 0.752941
vn -0.907072 0.000000 -0.420975
v -0.397992 0.900000 -0.220799 0.752941 0.752941 0.752941
vn 0.000000 1.000000 0.000000
v -0.397992 0.900000 -0.220799 0.752941 0.752941 0.752941
vn 0.000000 -1.000000 0.000000
v -0.458281 -0.900000 0.004201 0.752941 0.752941 0.752941
vn -0.996035 0.000000 -0.088963
v -0.458281 -0.900000 0.004201 0.752941 0.752941 0.752941
vn -0.996035 0.000000 0.088963
v -0.458281 0.900000 0.004201 0.752941 0.752941 0.752941
vn 0.000000 1.000000 0.000000
v -0.458281 0.900000 0.004201 0.752941 0.752941 0.752941
vn 0.000000 -1.000000 0.000000
v -0.397992 -0.900000 0.229201 0.752941 0.752941 0.752941
vn -0.907072 0.000000 0.420975
v -0.397992 -0.900000 0.229201 0.752941 0.752941 0.752941
vn -0.818110 0.000000 0.575061
v -0.397992 0.900000 0.229201 0.752941 0.752941 0.752941
vn 0.000000 1.000000 0.000000
v -0.397992 0.900000 0.229201 0.752941 0.752941 0.752941
vn 0.000000 -1.000000 0.000000
v -0.233281 -0.900000 0.393912 0.752941 0.752941 0.752941
vn -0.575061 0.000000 0.818110
v -0.233281 -0.900000 0.393912 0.752941 0.752941 0.752941
vn -0.420975 0.000000 0.907072
v -0.233281 0.900000 0.393912 0.752941 0.752941 0.752941
vn 0.000000 1.000000 0.000000
v -0.233281 0.900000 0.393912 0.752941 0.752941 0.752941
vn 0.000000 -1.000000 0.000000
v -0.008281 -0.900000 0.454201 0.752941 0.752941 0.752941
vn -0.088963 0.000000 0.996035
v -0.008281 -0.900000 0.454201 0.752941 0.752941 0.752941
vn 0.088963 0.000000 0.996035
v -0.008281 0.900000 0.454201 0.752941 0.752941 0.752941
vn 0.000000 1.000000 0.000000
v -0.008281 0.900000 0.454201 0.752941 0.752941 0.752941
vn 0.000000 -1.000000 0.000000
v 0.216719 -0.900000 0.393912 0.752941 0.752941 0.752941
vn 0.420974 0.000000 0.907073
v 0.216719 -0.900000 0.393912 0.752941 0.752941 0.752941
vn 0.575060 0.000000 0.818111
v 0.216719 0.900000 0.393912 0.752941 0.752941 0.752941
vn 0.000000 1.000000 0.000000
v 0.216719 0.900000 0.393912 0.752941 0.752941 0.752941
vn 0.000000 -1.000000 0.000000
v 0.381431 -0.900000 0.229201 0.752941 0.752941 0.752941
vn 0.818110 0.000000 0.575062
v 0.381431 -0.900000 0.229201 0.752941 0.752941 0.752941
vn 0.907073 0.000000 0.420973
v 0.381431 0.900000 0.229201 0.752941 0.752941 0.752941
vn 0.000000 1.000000 0.000000
v 0.381431 0.900000 0.229201 0.752941 0.752941 0.752941
vn -1.000000 0.000000 0.000000
v -0.908281 0.000000 0.004201 0.752941 0.752941 0.752941
vn 1.000000 0.000000 0.000000
v 0.891719 0.000000 0.004201 0.752941 0.752941 0.752941
vn -1.000000 0.000000 0.000000
v -0.908281 -0.450000 0.004201 0.752941 0.752941 0.752941
vn 0.000000 -0.996035 0.088960
v -0.908281 -0.450000 0.004201 0.752941 0.752941 0.752941
vn 0.000000 -0.996035 -0.088964
v 0.891719 -0.450000 0.004201 0.752941 0.752941 0.752941
vn 1.000000 0.000000 0.000000
v 0.891719 -0.450000 0.004201 0.752941 0.752941 0.752941
vn -1.000000 0.000000 0.000000
v -0.908281 -0.389711 -0.220799 0.752941 0.752941 0.752941
vn 0.000000 -0.907072 -0.420975
v -0.908281 -0.389711 -0.220799 0.752941 0.752941 0.752941
vn 0.000000 -0.818110 -0.575061
v 0.891719 -0.389711 -0.220799 0.752941 0.752941 0.752941
vn 1.000000 0.000000 0.000000
v 0.891719 -0.389711 -0.220799 0.752941 0.752941 0.752941
vn -1.000000 0.000000 0.000000
v -0.908281 -0.225000 -0.385510 0.752941 0.752941 0.752941
vn 0.000000 -0.575061 -0.818110
v -0.908281 -0.225000 -0.385510 0.752941 0.752941 0.752941
vn 0.000000 -0.420975 -0.907072
v 0.891719 -0.225000 -0.385510 0.752941 0.752941 0.752941
vn 1.000000 0.000000 0.000000
v 0.891719 -0.225000 -0.385510 0.752941 0.752941 0.752941
vn -1.000000 0.000000 0.000000
v -0.908281 0.000000 -0.445799 0.752941 0.752941 0.752941
vn 0.000000 -0.088963 -0.996035
v -0.908281 0.000000 -0.445799 0.752941 0.752941 0.752941
vn 0.000000 0.088963 -0.996035
v 0.891719 0.000000 -0.445799 0.752941 0.752941 0.752941
vn 1.000000 0.000000 0.000000
v 0.891719 0.000000 -0.445799 0.752941 0.752941 0.752941
vn -1.000000 0.000000 0.000000
v -0.908281 0.225000 -0.385510 0.752941 0.752941 0.752941
vn 0.000000 0.420975 -0.907072
v -0.908281 0.225000 -0.385510 0.752941 0.752941 0.752941
vn 0.000000 0.575061 -0.818110
v 0.891719 0.225000 -0.385510 0.752941 0.752941 0.752941
vn 1.000000 0.000000 0.000000
v 0.891719 0.225000 -0.385510 0.752941 0.752941 0.752941
vn -1.000000 0.000000 0.000000
v -0.908281 0.389711 -0.220799 0.752941 0.752941 0.752941
vn 0.000000 0.818110 -0.575061
v -0.908281 0.389711 -0.220799 0.752941 0.752941 0.752941
vn 0.000000 0.907072 -0.420975
v 0.891719 0.389711 -0.220799 0.752941 0.752941 0.752941
vn 1.000000 0.000000 0.000000
v 0.891719 0.389711 -0.220799 0.752941 0.752941 0.752941
vn -1.000000 0.000000 0.000000
v -0.908281 0.450000 0.004201 0.752941 0.752941 0.752941
vn 0.000000 0.996035 -0.088963
v -0.908281 0.450000 0.004201 0.752941 0.752941 0.752941
vn 0.000000 0.996035 0.088963
v 0.891719 0.450000 0.004201 0.752941 0.752941 0.752941
vn 1.000000 0.000000 0.000000
v 0.891719 0.450000 0.004201 0.752941 0.752941 0.752941
vn -1.000000 0.000000 0.000000
v -0.908281 0.389711 0.229201 0.752941 0.752941 0.752941
vn 0.000000 0.907072 0.420975
v -0.908281 0.389711 0.229201 0.752941 0.752941 0.752941
vn 0.000000 0.818110 0.575061
v 0.891719 0.389711 0.229201 0.752941 0.752941 0.752941
vn 1.000000 0.000000 0.000000
v 0.891719 0.389711 0.229201 0.752941 0.752941 0.752941
vn -1.000000 0.000000 0.000000
v -0.908281 0.225000 0.393912 0.752941 0.752941 0.752941
vn 0.000000 0.575061 0.818110
v -0.908281 0.225000 0.393912 0.752941 0.752941 0.752941
vn 0.000000 0.420975 0.907072
v 0.891719 0.225000 0.393912 0.752941 0.752941 0.752941
vn 1.000000 0.000000 0.000000
v 0.891719 0.225000 0.393912 0.752941 0.752941 0.752941
vn -1.000000 0.000000 0.000000
v -0.908281 0.000000 0.454201 0.752941 0.752941 0.752941
vn 0.000000 0.088963 0.996035
v -0.908281 0.000000 0.454201 0.752941 0.752941 0.752941
vn 0.000000 -0.088963 0.996035
v 0.891719 0.000000 0.454201 0.752941 0.752941 0.752941
vn 1.000000 0.000000 0.000000
v 0.891719 0.000000 0.454201 0.752941 0.752941 0.752941
vn -1.000000 0.000000 0.000000
v -0.908281 -0.225000 0.393912 0.752941 0.752941 0.752941
vn 0.000000 -0.420974 0.907073
v -0.908281 -0.225000 0.393912 0.752941 0.752941 0.752941
vn 0.000000 -0.575060 0.818111
v 0.891719 -0.225000 0.393912 0.752941 0.752941 0.752941
vn 1.000000 0.000000 0.000000
v 0.891719 -0.225000 0.393912 0.752941 0.752941 0.752941
vn -1.000000 0.000000 0.000000
v -0.908281 -0.389712 0.229201 0.752941 0.752941 0.752941
vn 0.000000 -0.818110 0.575062
v -0.908281 -0.389712 0.229201 0.752941 0.752941 0.752941
vn 0.000000 -0.907073 0.420973
v 0.891719 -0.389712 0.229201 0.752941 0.752941 0.752941
vn 1.000000 0.000000 0.000000
v 0.891719 -0.389712 0.229201 0.752941 0.752941 0.752941
vn 0.000000 0.000000 1.000000
v -0.008281 0.000000 0.904201 0.752941 0.752941 0.752941
vn 0.000000 0.000000 -1.000000
v -0.008281 0.000000 -0.895799 0.752941 0.752941 0.752941
vn 0.000000 0.000000 1.000000
v 0.441719 0.000000 0.904201 0.752941 0.752941 0.752941
vn 0.996035 0.088961 0.000000
v 0.441719 0.000000 0.904201 0.752941 0.752941 0.752941
vn 0.996035 -0.088961 0.000000
v 0.441719 0.000000 -0.895799 0.752941 0.752941 0.752941
vn 0.000000 0.000000 -1.000000
v 0.441719 0.000000 -0.895799 0.752941 0.752941 0.752941
vn 0.000000 0.000000 1.000000
v 0.381431 -0.225000 0.904201 0.752941 0.752941 0.752941
vn 0.907073 -0.420973 0.000000
v 0.381431 -0.225000 0.904201 0.752941 0.752941 0.752941
vn 0.818110 -0.575062 0.000000
v 0.381431 -0.225000 -0.895799 0.752941 0.752941 0.752941
vn 0.000000 0.000000 -1.000000
v 0.381431 -0.225000 -0.895799 0.752941 0.752941 0.752941
vn 0.000000 0.000000 1.000000
v 0.216719 -0.389711 0.904201 0.752941 0.752941 0.752941
vn 0.575060 -0.818111 0.000000
v 0.216719 -0.389711 0.904201 0.752941 0.752941 0.752941
vn 0.420974 -0.907073 0.000000
v 0.216719 -0.389711 -0.895799 0.752941 0.752941 0.752941
vn 0.000000 0.000000 -1.000000
v 0.216719 -0.389711 -0.895799 0.752941 0.752941 0.752941
vn 0.000000 0.000000 1.000000
v -0.008281 -0.450000 0.904201 0.752941 0.752941 0.752941
vn 0.088963 -0.996035 0.000000
v -0.008281 -0.450000 0.904201 0.752941 0.752941 0.752941
vn -0.088963 -0.996035 0.000000
v -0.008281 -0.450000 -0.895799 0.752941 0.752941 0.752941
vn 0.000000 0.000000 -1.000000
v -0.008281 -0.450000 -0.895799 0.752941 0.752941 0.752941
vn 0.000000 0.000000 1.000000
v -0.233281 -0.389711 0.904201 0.752941 0.752941 0.752941
vn -0.420975 -0.907072 0.000000
v -0.233281 -0.389711 0.904201 0.752941 0.752941 0.752941
vn -0.575061 -0.818110 0.000000
v -0.233281 -0.389711 -0.895799 0.752941 0.752941 0.752941
vn 0.000000 0.000000 -1.000000
v -0.233281 -0.389711 -0.895799 0.752941 0.752941 0.752941
vn 0.000000 0.000000 1.000000
v -0.397992 -0.225000 0.904201 0.752941 0.752941 0.752941
vn -0.818110 -0.575061 0.000000
v -0.397992 -0.225000 0.904201 0.752941 0.752941 0.752941
vn -0.907072 -0.420975 0.000000
v -0.397992 -0.225000 -0.895799 0.752941 0.752941 0.752941
vn 0.000000 0.000000 -1.000000
v -0.397992 -0.225000 -0.895799 0.752941 0.752941 0.752941
vn 0.000000 0.000000 1.000000
v -0.458281 0.000000 0.904201 0.752941 0.752941 0.752941
vn -0.996035 -0.088963 0.000000
v -0.458281 0.000000 0.904201 0.752941 0.752941 0.752941
vn -0.996035 0.088963 0.000000
v -0.458281 0.000000 -0.895799 0.752941 0.752941 0.752941
vn 0.000000 0.000000 -1.000000
v -0.458281 0.000000 -0.895799 0.752941 0.752941 0.752941
vn 0.000000 0.000000 1.000000
v -0.397992 0.225000 0.904201 0.752941 0.752941 0.752941
vn -0.907072 0.420975 0.000000
v -0.397992 0.225000 0.904201 0.752941 0.752941 0.752941
vn -0.818110 0.575061 0.000000
v -0.397992 0.225000 -0.895799 0.752941 0.752941 0.752941
vn 0.000000 0.000000 -1.000000
v -0.397992 0.225000 -0.895799 0.752941 0.752941 0.752941
vn 0.000000 0.000000 1.000000
v -0.233281 0.389711 0.904201 0.752941 0.752941 0.752941
vn -0.575061 0.818110 0.000000
v -0.233281 0.389711 0.904201 0.752941 0.752941 0.752941
vn -0.420975 0.907072 0.000000
v -0.233281 0.389711 -0.895799 0.752941 0.752941 0.752941
vn 0.000000 0.000000 -1.000000
v -0.233281 0.389711 -0.895799 0.752941 0.752941 0.752941
vn 0.000000 0.000000 1.000000
v -0.008281 0.450000 0.904201 0.752941 0.752941 0.752941
vn -0.088963 0.996035 0.000000
v -0.008281 0.450000 0.904201 0.752941 0.752941 0.752941
vn 0.088963 0.996035 0.000000
v -0.008281 0.450000 -0.895799 0.752941 0.752941 0.752941
vn 0.000000 0.000000 -1.000000
v -0.008281 0.450000 -0.895799 0.752941 0.752941 0.752941
vn 0.000000 0.000000 1.000000
v 0.216719 0.389711 0.904201 0.752941 0.752941 0.752941
vn 0.420974 0.907073 0.000000
v 0.216719 0.389711 0.904201 0.752941 0.752941 0.752941
vn 0.575060 0.818111 0.000000
v 0.216719 0.389711 -0.895799 0.752941 0.752941 0.752941
vn 0.000000 0.000000 -1.000000
v 0.216719 0.389711 -0.895799 0.752941 0.752941 0.752941
vn 0.000000 0.000000 1.000000
v 0.381431 0.225000 0.904201 0.752941 0.752941 0.752941
vn 0.818110 0.575062 0.000000
v 0.381431 0.225000 0.904201 0.752941 0.752941 0.752941
vn 0.907073 0.420973 0.000000
v 0.381431 0.225000 -0.895799 0.752941 0.752941 0.752941
vn 0.000000 0.000000 -1.000000
v 0.381431 0.225000 -0.895799 0.752941 0.752941 0.752941
# 150 vertices, 0 vertices normals


usemtl material_0
vt 0.066987 0.750000
vt 0.000000 0.500000
vt 0.500000 0.500000
f 7/1/7 3/2/3 1/3/1
vt 0.083333 0.000000
vt 0.083333 1.000000
vt 0.000000 1.000000
f 8/4/8 9/5/9 5/6/5
vt 0.000000 0.000000
f 8/4/8 5/6/5 4/7/4
vt 0.933013 0.750000
vt 1.000000 0.500000
f 10/8/10 2/3/2 6/9/6
vt 0.250000 0.933013
f 11/10/11 7/1/7 1/3/1
vt 0.166667 0.000000
vt 0.166667 1.000000
f 12/11/12 13/12/13 9/5/9
f 12/11/12 9/5/9 8/4/8
vt 0.750000 0.933013
f 14/13/14 2/3/2 10/8/10
vt 0.500000 1.000000
f 15/14/15 11/10/11 1/3/1
vt 0.250000 0.000000
vt 0.250000 1.000000
f 16/15/16 17/16/17 13/12/13
f 16/15/16 13/12/13 12/11/12
f 18/14/18 2/3/2 14/13/14
f 19/13/19 15/14/15 1/3/1
vt 0.333333 0.000000
vt 0.333333 1.000000
f 20/17/20 21/18/21 17/16/17
f 20/17/20 17/16/17 16/15/16
f 22/10/22 2/3/2 18/14/18
f 23/8/23 19/13/19 1/3/1
vt 0.416667 0.000000
vt 0.416667 1.000000
f 24/19/24 25/20/25 21/18/21
f 24/19/24 21/18/21 20/17/20
f 26/1/26 2/3/2 22/10/22
f 27/9/27 23/8/23 1/3/1
vt 0.500000 0.000000
f 28/21/28 29/14/29 25/20/25
f 28/21/28 25/20/25 24/19/24
f 30/2/30 2/3/2 26/1/26
vt 0.933013 0.250000
f 31/22/31 27/9/27 1/3/1
vt 0.583333 0.000000
vt 0.583333 1.000000
f 32/23/32 33/24/33 29/14/29
f 32/23/32 29/14/29 28/21/28
vt 0.066987 0.250000
f 34/25/34 2/3/2 30/2/30
vt 0.750000 0.066987
f 35/26/35 31/22/31 1/3/1
vt 0.666667 0.000000
vt 0.666667 1.000000
f 36/27/36 37/28/37 33/24/33
f 36/27/36 33/24/33 32/23/32
vt 0.250000 0.066987
f 38/29/38 2/3/2 34/25/34
f 39/21/39 35/26/35 1/3/1
vt 0.750000 0.000000
vt 0.750000 1.000000
f 40/30/40 41/31/41 37/28/37
f 40/30/40 37/28/37 36/27/36
f 42/21/42 2/3/2 38/29/38
f 43/29/43 39/21/39 1/3/1
vt 0.833333 0.000000
vt 0.833333 1.000000
f 44/32/44 45/33/45 41/31/41
f 44/32/44 41/31/41 40/30/40
f 46/26/46 2/3/2 42/21/42
f 47/25/47 43/29/43 1/3/1
vt 0.916667 0.000000
vt 0.916667 1.000000
f 48/34/48 49/35/49 45/33/45
f 48/34/48 45/33/45 44/32/44
f 50/22/50 2/3/2 46/26/46
f 3/2/3 47/25/47 1/3/1
vt 1.000000 0.000000
vt 1.000000 1.000000
f 4/36/4 5/37/5 49/35/49
f 4/36/4 49/35/49 48/34/48
f 6/9/6 2/3/2 50/22/50
f 57/1/57 53/2/53 51/3/51
f 58/4/58 59/5/59 55/6/55
f 58/4/58 55/6/55 54/7/54
f 60/8/60 52/3/52 56/9/56
f 61/10/61 57/1/57 51/3/51
f 62/11/62 63/12/63 59/5/59
f 62/11/62 59/5/59 58/4/58
f 64/13/64 52/3/52 60/8/60
f 65/14/65 61/10/61 51/3/51
f 66/15/66 67/16/67 63/12/63
f 66/15/66 63/12/63 62/11/62
f 68/14/68 52/3/52 64/13/64
f 69/13/69 65/14/65 51/3/51
f 70/17/70 71/18/71 67/16/67
f 70/17/70 67/16/67 66/15/66
f 72/10/72 52/3/52 68/14/68
f 73/8/73 69/13/69 51/3/51
f 74/19/74 75/20/75 71/18/71
f 74/19/74 71/18/71 70/17/70
f 76/1/76 52/3/52 72/10/72
f 77/9/77 73/8/73 51/3/51
f 78/21/78 79/14/79 75/20/75
f 78/21/78 75/20/75 74/19/74
f 80/2/80 52/3/52 76/1/76
f 81/22/81 77/9/77 51/3/51
f 82/23/82 83/24/83 79/14/79
f 82/23/82 79/14/79 78/21/78
f 84/25/84 52/3/52 80/2/80
f 85/26/85 81/22/81 51/3/51
f 86/27/86 87/28/87 83/24/83
f 86/27/86 83/24/83 82/23/82
f 88/29/88 52/3/52 84/25/84
f 89/21/89 85/26/85 51/3/51
f 90/30/90 91/31/91 87/28/87
f 90/30/90 87/28/87 86/27/86
f 92/21/92 52/3/52 88/29/88
f 93/29/93 89/21/89 51/3/51
f 94/32/94 95/33/95 91/31/91
f 94/32/94 91/31/91 90/30/90
f 96/26/96 52/3/52 92/21/92
f 97/25/97 93/29/93 51/3/51
f 98/34/98 99/35/99 95/33/95
f 98/34/98 95/33/95 94/32/94
f 100/22/100 52/3/52 96/26/96
f 53/2/53 97/25/97 51/3/51
f 54/36/54 55/37/55 99/35/99
f 54/36/54 99/35/99 98/34/98
f 56/9/56 52/3/52 100/22/100
f 107/1/107 103/2/103 101/3/101
f 108/4/108 109/5/109 105/6/105
f 108/4/108 105/6/105 104/7/104
f 110/8/110 102/3/102 106/9/106
f 111/10/111 107/1/107 101/3/101
f 112/11/112 113/12/113 109/5/109
f 112/11/112 109/5/109 108/4/108
f 114/13/114 102/3/102 110/8/110
f 115/14/115 111/10/111 101/3/101
f 116/15/116 117/16/117 113/12/113
f 116/15/116 113/12/113 112/11/112
f 118/14/118 102/3/102 114/13/114
f 119/13/119 115/14/115 101/3/101
f 120/17/120 121/18/121 117/16/117
f 120/17/120 117/16/117 116/15/116
f 122/10/122 102/3/102 118/14/118
f 123/8/123 119/13/119 101/3/101
f 124/19/124 125/20/125 121/18/121
f 124/19/124 121/18/121 120/17/120
f 126/1/126 102/3/102 122/10/122
f 127/9/127 123/8/123 101/3/101
f 128/21/128 129/14/129 125/20/125
f 128/21/128 125/20/125 124/19/124
f 130/2/130 102/3/102 126/1/126
f 131/22/131 127/9/127 101/3/101
f 132/23/132 133/24/133 129/14/129
f 132/23/132 129/14/129 128/21/128
f 134/25/134 102/3/102 130/2/130
f 135/26/135 131/22/131 101/3/101
f 136/27/136 137/28/137 133/24/133
f 136/27/136 133/24/133 132/23/132
f 138/29/138 102/3/102 134/25/134
f 139/21/139 135/26/135 101/3/101
f 140/30/140 141/31/141 137/28/137
f 140/30/140 137/28/137 136/27/136
f 142/21/142 102/3/102 138/29/138
f 143/29/143 139/21/139 101/3/101
f 144/32/144 145/33/145 141/31/141
f 144/32/144 141/31/141 140/30/140
f 146/26/146 102/3/102 142/21/142
f 147/25/147 143/29/143 101/3/101
f 148/34/148 149/35/149 145/33/145
f 148/34/148 145/33/145 144/32/144
f 150/22/150 102/3/102 146/26/146
f 103/2/103 147/25/147 101/3/101
f 104/36/104 105/37/105 149/35/149
f 104/36/104 149/35/149 148/34/148
f 106/9/106 102/3/102 150/22/150
# 144 faces, 37 coords texture

# End of File