####
#
# OBJ File Generated by Meshlab
#
####
# Object rubik_edge.obj
#
# Vertices: 112
# Faces: 216
#
####
mtllib ./rubik_edge.obj.mtl

vn -0.666667 -0.666667 0.333333
v -0.458281 -1.350000 -0.445799 0.752941 0.752941 0.752941
vn -0.408248 0.408248 0.816497
v -0.458281 -0.450000 -0.445799 0.752941 0.752941 0.752941
vn 0.408248 -0.408248 0.816497
v 0.441719 -1.350000 -0.445799 0.752941 0.752941 0.752941
vn 0.666667 0.666667 0.333333
v 0.441719 -0.450000 -0.445799 0.752941 0.752941 0.752941
vn 0.666667 -0.666667 -0.333333
v 0.441719 -1.350000 -1.345799 0.752941 0.752941 0.752941
vn 0.408248 0.408248 -0.816497
v 0.441719 -0.450000 -1.345799 0.752941 0.752941 0.752941
vn -0.408248 -0.408248 -0.816497
v -0.458281 -1.350000 -1.345799 0.752941 0.752941 0.752941
vn -0.666667 0.666667 -0.333333
v -0.458281 -0.450000 -1.345799 0.752941 0.752941 0.752941
vn -0.015617 -0.999847 0.007930
v -0.803281 -0.895000 0.799201 0.752941 0.752941 0.752941
vn 0.004147 -0.999958 0.008167
v 0.786719 -0.895000 0.799201 0.752941 0.752941 0.752941
vn 0.015617 -0.999847 -0.007930
v 0.786719 -0.895000 -0.790799 0.752941 0.752941 0.752941
vn -0.004147 -0.999958 -0.008167
v -0.803281 -0.895000 -0.790799 0.752941 0.752941 0.752941
vn -0.003113 -0.905349 0.424657
v -0.803281 -0.881603 0.849201 0.752941 0.752941 0.752941
vn 0.001384 -0.818634 0.574314
v 0.786719 -0.881603 0.849201 0.752941 0.752941 0.752941
vn 0.232561 -0.821415 0.520761
v 0.811719 -0.881603 0.842502 0.752941 0.752941 0.752941
vn 0.461784 -0.821416 0.334712
v 0.830020 -0.881603 0.824201 0.752941 0.752941 0.752941
vn 0.424655 -0.905350 0.003113
v 0.836719 -0.881603 0.799201 0.752941 0.752941 0.752941
vn 0.574307 -0.818639 -0.001384
v 0.836719 -0.881603 -0.790799 0.752941 0.752941 0.752941
vn 0.520758 -0.821417 -0.232564
v 0.830020 -0.881603 -0.815799 0.752941 0.752941 0.752941
vn 0.334712 -0.821416 -0.461784
v 0.811719 -0.881603 -0.834100 0.752941 0.752941 0.752941
vn 0.003113 -0.905350 -0.424655
v 0.786719 -0.881603 -0.840799 0.752941 0.752941 0.752941
vn -0.001384 -0.818639 -0.574307
v -0.803281 -0.881603 -0.840799 0.752941 0.752941 0.752941
vn -0.232564 -0.821417 -0.520758
v -0.828281 -0.881603 -0.834100 0.752941 0.752941 0.752941
vn -0.461784 -0.821416 -0.334712
v -0.846582 -0.881603 -0.815799 0.752941 0.752941 0.752941
vn -0.424657 -0.905349 -0.003113
v -0.853281 -0.881603 -0.790799 0.752941 0.752941 0.752941
vn -0.574314 -0.818634 0.001384
v -0.853281 -0.881603 0.799201 0.752941 0.752941 0.752941
vn -0.520761 -0.821415 0.232561
v -0.846582 -0.881603 0.824201 0.752941 0.752941 0.752941
vn -0.334712 -0.821416 0.461784
v -0.828281 -0.881603 0.842502 0.752941 0.752941 0.752941
vn -0.006802 -0.570798 0.821062
v -0.803281 -0.845000 0.885803 0.752941 0.752941 0.752941
vn 0.005102 -0.424041 0.905629
v 0.786719 -0.845000 0.885803 0.752941 0.752941 0.752941
vn 0.409736 -0.476173 0.778059
v 0.830020 -0.845000 0.874201 0.752941 0.752941 0.752941
vn 0.743865 -0.476177 0.468956
v 0.861719 -0.845000 0.842502 0.752941 0.752941 0.752941
vn 0.821059 -0.570803 0.006802
v 0.873322 -0.845000 0.799201 0.752941 0.752941 0.752941
vn 0.905631 -0.424036 -0.005103
v 0.873322 -0.845000 -0.790799 0.752941 0.752941 0.752941
vn 0.778057 -0.476175 -0.409738
v 0.861719 -0.845000 -0.834100 0.752941 0.752941 0.752941
vn 0.468954 -0.476178 -0.743866
v 0.830020 -0.845000 -0.865799 0.752941 0.752941 0.752941
vn 0.006802 -0.570803 -0.821059
v 0.786719 -0.845000 -0.877402 0.752941 0.752941 0.752941
vn -0.005103 -0.424036 -0.905631
v -0.803281 -0.845000 -0.877402 0.752941 0.752941 0.752941
vn -0.409738 -0.476176 -0.778056
v -0.846582 -0.845000 -0.865799 0.752941 0.752941 0.752941
vn -0.743874 -0.476172 -0.468948
v -0.878281 -0.845000 -0.834100 0.752941 0.752941 0.752941
vn -0.821062 -0.570798 -0.006802
v -0.889883 -0.845000 -0.790799 0.752941 0.752941 0.752941
vn -0.905629 -0.424041 0.005102
v -0.889883 -0.845000 0.799201 0.752941 0.752941 0.752941
vn -0.778059 -0.476173 0.409736
v -0.878281 -0.845000 0.842502 0.752941 0.752941 0.752941
vn -0.468950 -0.476171 0.743873
v -0.846582 -0.845000 0.874201 0.752941 0.752941 0.752941
vn -0.015188 -0.015188 0.999769
v -0.803281 -0.795000 0.899201 0.752941 0.752941 0.752941
vn 0.004320 -0.004320 0.999981
v 0.786719 -0.795000 0.899201 0.752941 0.752941 0.752941
vn 0.425429 -0.007787 0.904958
v 0.836719 -0.795000 0.885803 0.752941 0.752941 0.752941
vn 0.820906 -0.007787 0.571010
v 0.873322 -0.795000 0.849201 0.752941 0.752941 0.752941
vn 0.999769 -0.015187 0.015187
v 0.886719 -0.795000 0.799201 0.752941 0.752941 0.752941
vn 0.999981 -0.004320 -0.004320
v 0.886719 -0.795000 -0.790799 0.752941 0.752941 0.752941
vn 0.904961 -0.007787 -0.425424
v 0.873322 -0.795000 -0.840799 0.752941 0.752941 0.752941
vn 0.571004 -0.007787 -0.820911
v 0.836719 -0.795000 -0.877402 0.752941 0.752941 0.752941
vn 0.015187 -0.015187 -0.999769
v 0.786719 -0.795000 -0.890799 0.752941 0.752941 0.752941
vn -0.004320 -0.004320 -0.999981
v -0.803281 -0.795000 -0.890799 0.752941 0.752941 0.752941
vn -0.425426 -0.007787 -0.904960
v -0.853281 -0.795000 -0.877402 0.752941 0.752941 0.752941
vn -0.820914 -0.007787 -0.570998
v -0.889883 -0.795000 -0.840799 0.752941 0.752941 0.752941
vn -0.999769 -0.015188 -0.015188
v -0.903281 -0.795000 -0.790799 0.752941 0.752941 0.752941
vn -0.999981 -0.004320 0.004320
v -0.903281 -0.795000 0.799201 0.752941 0.752941 0.752941
vn -0.904957 -0.007787 0.425431
v -0.889883 -0.795000 0.849201 0.752941 0.752941 0.752941
vn -0.571005 -0.007787 0.820910
v -0.853281 -0.795000 0.885803 0.752941 0.752941 0.752941
vn -0.004320 0.004320 0.999981
v -0.803281 0.795000 0.899201 0.752941 0.752941 0.752941
vn 0.015188 0.015188 0.999769
v 0.786719 0.795000 0.899201 0.752941 0.752941 0.752941
vn 0.570998 0.007787 0.820914
v 0.836719 0.795000 0.885803 0.752941 0.752941 0.752941
vn 0.904960 0.007787 0.425426
v 0.873322 0.795000 0.849201 0.752941 0.752941 0.752941
vn 0.999981 0.004320 0.004320
v 0.886719 0.795000 0.799201 0.752941 0.752941 0.752941
vn 0.999769 0.015187 -0.015187
v 0.886719 0.795000 -0.790799 0.752941 0.752941 0.752941
vn 0.820911 0.007787 -0.571004
v 0.873322 0.795000 -0.840799 0.752941 0.752941 0.752941
vn 0.425424 0.007787 -0.904961
v 0.836719 0.795000 -0.877402 0.752941 0.752941 0.752941
vn 0.004320 0.004320 -0.999981
v 0.786719 0.795000 -0.890799 0.752941 0.752941 0.752941
vn -0.015187 0.015187 -0.999769
v -0.803281 0.795000 -0.890799 0.752941 0.752941 0.752941
vn -0.571010 0.007787 -0.820906
v -0.853281 0.795000 -0.877402 0.752941 0.752941 0.752941
vn -0.904958 0.007787 -0.425429
v -0.889883 0.795000 -0.840799 0.752941 0.752941 0.752941
vn -0.999981 0.004320 -0.004320
v -0.903281 0.795000 -0.790799 0.752941 0.752941 0.752941
vn -0.999769 0.015188 0.015188
v -0.903281 0.795000 0.799201 0.752941 0.752941 0.752941
vn -0.820910 0.007787 0.571005
v -0.889883 0.795000 0.849201 0.752941 0.752941 0.752941
vn -0.425431 0.007787 0.904957
v -0.853281 0.795000 0.885803 0.752941 0.752941 0.752941
vn -0.005102 0.424041 0.905629
v -0.803281 0.845000 0.885803 0.752941 0.752941 0.752941
vn 0.006802 0.570798 0.821062
v 0.786719 0.845000 0.885803 0.752941 0.752941 0.752941
vn 0.468948 0.476172 0.743874
v 0.830020 0.845000 0.874201 0.752941 0.752941 0.752941
vn 0.778056 0.476176 0.409738
v 0.861719 0.845000 0.842502 0.752941 0.752941 0.752941
vn 0.905631 0.424036 0.005103
v 0.873322 0.845000 0.799201 0.752941 0.752941 0.752941
vn 0.821059 0.570803 -0.006802
v 0.873322 0.845000 -0.790799 0.752941 0.752941 0.752941
vn 0.743866 0.476178 -0.468954
v 0.861719 0.845000 -0.834100 0.752941 0.752941 0.752941
vn 0.409738 0.476175 -0.778056
v 0.830020 0.845000 -0.865799 0.752941 0.752941 0.752941
vn 0.005103 0.424036 -0.905631
v 0.786719 0.845000 -0.877402 0.752941 0.752941 0.752941
vn -0.006802 0.570803 -0.821059
v -0.803281 0.845000 -0.877402 0.752941 0.752941 0.752941
vn -0.468956 0.476177 -0.743865
v -0.846582 0.845000 -0.865799 0.752941 0.752941 0.752941
vn -0.778059 0.476173 -0.409736
v -0.878281 0.845000 -0.834100 0.752941 0.752941 0.752941
vn -0.905629 0.424041 -0.005102
v -0.889883 0.845000 -0.790799 0.752941 0.752941 0.752941
vn -0.821062 0.570798 0.006802
v -0.889883 0.845000 0.799201 0.752941 0.752941 0.752941
vn -0.743873 0.476171 0.468950
v -0.878281 0.845000 0.842502 0.752941 0.752941 0.752941
vn -0.409736 0.476173 0.778059
v -0.846582 0.845000 0.874201 0.752941 0.752941 0.752941
vn -0.001384 0.818634 0.574314
v -0.803281 0.881603 0.849201 0.752941 0.752941 0.752941
vn 0.003113 0.905349 0.424657
v 0.786719 0.881603 0.849201 0.752941 0.752941 0.752941
vn 0.334712 0.821415 0.461784
v 0.811719 0.881603 0.842502 0.752941 0.752941 0.752941
vn 0.520758 0.821417 0.232564
v 0.830020 0.881603 0.824201 0.752941 0.752941 0.752941
vn 0.574307 0.818639 0.001384
v 0.836719 0.881603 0.799201 0.752941 0.752941 0.752941
vn 0.424655 0.905350 -0.003113
v 0.836719 0.881603 -0.790799 0.752941 0.752941 0.752941
vn 0.461784 0.821416 -0.334712
v 0.830020 0.881603 -0.815799 0.752941 0.752941 0.752941
vn 0.232564 0.821417 -0.520758
v 0.811719 0.881603 -0.834100 0.752941 0.752941 0.752941
vn 0.001384 0.818639 -0.574307
v 0.786719 0.881603 -0.840799 0.752941 0.752941 0.752941
vn -0.003113 0.905350 -0.424655
v -0.803281 0.881603 -0.840799 0.752941 0.752941 0.752941
vn -0.334712 0.821416 -0.461784
v -0.828281 0.881603 -0.834100 0.752941 0.752941 0.752941
vn -0.520761 0.821415 -0.232561
v -0.846582 0.881603 -0.815799 0.752941 0.752941 0.752941
vn -0.574314 0.818634 -0.001384
v -0.853281 0.881603 -0.790799 0.752941 0.752941 0.752941
vn -0.424657 0.905349 0.003113
v -0.853281 0.881603 0.799201 0.752941 0.752941 0.752941
vn -0.461784 0.821415 0.334712
v -0.846582 0.881603 0.824201 0.752941 0.752941 0.752941
vn -0.232561 0.821415 0.520761
v -0.828281 0.881603 0.842502 0.752941 0.752941 0.752941
vn -0.007930 0.999847 0.015617
v -0.803281 0.895000 0.799201 0.752941 0.752941 0.752941
vn 0.008167 0.999958 0.004147
v 0.786719 0.895000 0.799201 0.752941 0.752941 0.752941
vn 0.007930 0.999847 -0.015617
v 0.786719 0.895000 -0.790799 0.752941 0.752941 0.752941
vn -0.008167 0.999958 -0.004147
v -0.803281 0.895000 -0.790799 0.752941 0.752941 0.752941
# 112 vertices, 0 vertices normals


usemtl material_0
vt 1.000000 0.000000
vt 1.000000 1.000000
vt 0.000000 1.000000
f 3/1/3 4/2/4 2/3/2
vt 0.000000 0.000000
f 3/1/3 2/3/2 1/4/1
f 5/1/5 6/2/6 4/3/4
f 5/1/5 4/3/4 3/4/3
f 7/1/7 8/2/8 6/3/6
f 7/1/7 6/3/6 5/4/5
f 1/1/1 2/2/2 8/3/8
f 1/1/1 8/3/8 7/4/7
f 4/1/4 6/2/6 8/3/8
f 4/1/4 8/3/8 2/4/2
f 5/1/5 3/2/3 1/3/1
f 5/1/5 1/3/1 7/4/7
vt 0.000000 1.875000
f 10/5/10 14/5/14 13/5/13
f 10/5/10 13/5/13 9/5/9
f 14/5/14 30/5/30 29/5/29
f 14/5/14 29/5/29 13/5/13
f 30/5/30 46/5/46 45/5/45
f 30/5/30 45/5/45 29/5/29
f 46/5/46 62/5/62 61/5/61
f 46/5/46 61/5/61 45/5/45
f 62/5/62 78/5/78 77/5/77
f 62/5/62 77/5/77 61/5/61
f 78/5/78 94/5/94 93/5/93
f 78/5/78 93/5/93 77/5/77
f 94/5/94 110/5/110 109/5/109
f 94/5/94 109/5/109 93/5/93
f 15/5/15 14/5/14 10/5/10
f 15/5/15 31/5/31 30/5/30
f 15/5/15 30/5/30 14/5/14
f 31/5/31 47/5/47 46/5/46
f 31/5/31 46/5/46 30/5/30
f 47/5/47 63/5/63 62/5/62
f 47/5/47 62/5/62 46/5/46
f 63/5/63 79/5/79 78/5/78
f 63/5/63 78/5/78 62/5/62
f 79/5/79 95/5/95 94/5/94
f 79/5/79 94/5/94 78/5/78
f 95/5/95 110/5/110 94/5/94
f 16/5/16 15/5/15 10/5/10
f 16/5/16 32/5/32 31/5/31
f 16/5/16 31/5/31 15/5/15
f 32/5/32 48/5/48 47/5/47
f 32/5/32 47/5/47 31/5/31
f 48/5/48 64/5/64 63/5/63
f 48/5/48 63/5/63 47/5/47
f 64/5/64 80/5/80 79/5/79
f 64/5/64 79/5/79 63/5/63
f 80/5/80 96/5/96 95/5/95
f 80/5/80 95/5/95 79/5/79
f 96/5/96 110/5/110 95/5/95
f 17/5/17 16/5/16 10/5/10
f 17/5/17 33/5/33 32/5/32
f 17/5/17 32/5/32 16/5/16
f 33/5/33 49/5/49 48/5/48
f 33/5/33 48/5/48 32/5/32
f 49/5/49 65/5/65 64/5/64
f 49/5/49 64/5/64 48/5/48
f 65/5/65 81/5/81 80/5/80
f 65/5/65 80/5/80 64/5/64
f 81/5/81 97/5/97 96/5/96
f 81/5/81 96/5/96 80/5/80
f 97/5/97 110/5/110 96/5/96
f 11/5/11 18/5/18 17/5/17
f 11/5/11 17/5/17 10/5/10
f 18/5/18 34/5/34 33/5/33
f 18/5/18 33/5/33 17/5/17
f 34/5/34 50/5/50 49/5/49
f 34/5/34 49/5/49 33/5/33
f 50/5/50 66/5/66 65/5/65
f 50/5/50 65/5/65 49/5/49
f 66/5/66 82/5/82 81/5/81
f 66/5/66 81/5/81 65/5/65
f 82/5/82 98/5/98 97/5/97
f 82/5/82 97/5/97 81/5/81
f 98/5/98 111/5/111 110/5/110
f 98/5/98 110/5/110 97/5/97
f 19/5/19 18/5/18 11/5/11
f 19/5/19 35/5/35 34/5/34
f 19/5/19 34/5/34 18/5/18
f 35/5/35 51/5/51 50/5/50
f 35/5/35 50/5/50 34/5/34
f 51/5/51 67/5/67 66/5/66
f 51/5/51 66/5/66 50/5/50
f 67/5/67 83/5/83 82/5/82
f 67/5/67 82/5/82 66/5/66
f 83/5/83 99/5/99 98/5/98
f 83/5/83 98/5/98 82/5/82
f 99/5/99 111/5/111 98/5/98
f 20/5/20 19/5/19 11/5/11
f 20/5/20 36/5/36 35/5/35
f 20/5/20 35/5/35 19/5/19
f 36/5/36 52/5/52 51/5/51
f 36/5/36 51/5/51 35/5/35
f 52/5/52 68/5/68 67/5/67
f 52/5/52 67/5/67 51/5/51
f 68/5/68 84/5/84 83/5/83
f 68/5/68 83/5/83 67/5/67
f 84/5/84 100/5/100 99/5/99
f 84/5/84 99/5/99 83/5/83
f 100/5/100 111/5/111 99/5/99
f 21/5/21 20/5/20 11/5/11
f 21/5/21 37/5/37 36/5/36
f 21/5/21 36/5/36 20/5/20
f 37/5/37 53/5/53 52/5/52
f 37/5/37 52/5/52 36/5/36
f 53/5/53 69/5/69 68/5/68
f 53/5/53 68/5/68 52/5/52
f 69/5/69 85/5/85 84/5/84
f 69/5/69 84/5/84 68/5/68
f 85/5/85 101/5/101 100/5/100
f 85/5/85 100/5/100 84/5/84
f 101/5/101 111/5/111 100/5/100
f 12/5/12 22/5/22 21/5/21
f 12/5/12 21/5/21 11/5/11
f 22/5/22 38/5/38 37/5/37
f 22/5/22 37/5/37 21/5/21
f 38/5/38 54/5/54 53/5/53
f 38/5/38 53/5/53 37/5/37
f 54/5/54 70/5/70 69/5/69
f 54/5/54 69/5/69 53/5/53
f 70/5/70 86/5/86 85/5/85
f 70/5/70 85/5/85 69/5/69
f 86/5/86 102/5/102 101/5/101
f 86/5/86 101/5/101 85/5/85
f 102/5/102 112/5/112 111/5/111
f 102/5/102 111/5/111 101/5/101
f 23/5/23 22/5/22 12/5/12
f 23/5/23 39/5/39 38/5/38
f 23/5/23 38/5/38 22/5/22
f 39/5/39 55/5/55 54/5/54
f 39/5/39 54/5/54 38/5/38
f 55/5/55 71/5/71 70/5/70
f 55/5/55 70/5/70 54/5/54
f 71/5/71 87/5/87 86/5/86
f 71/5/71 86/5/86 70/5/70
f 87/5/87 103/5/103 102/5/102
f 87/5/87 102/5/102 86/5/86
f 103/5/103 112/5/112 102/5/102
f 24/5/24 23/5/23 12/5/12
f 24/5/24 40/5/40 39/5/39
f 24/5/24 39/5/39 23/5/23
f 40/5/40 56/5/56 55/5/55
f 40/5/40 55/5/55 39/5/39
f 56/5/56 72/5/72 71/5/71
f 56/5/56 71/5/71 55/5/55
f 72/5/72 88/5/88 87/5/87
f 72/5/72 87/5/87 71/5/71
f 88/5/88 104/5/104 103/5/103
f 88/5/88 103/5/103 87/5/87
f 104/5/104 112/5/112 103/5/103
f 25/5/25 24/5/24 12/5/12
f 25/5/25 41/5/41 40/5/40
f 25/5/25 40/5/40 24/5/24
f 41/5/41 57/5/57 56/5/56
f 41/5/41 56/5/56 40/5/40
f 57/5/57 73/5/73 72/5/72
f 57/5/57 72/5/72 56/5/56
f 73/5/73 89/5/89 88/5/88
f 73/5/73 88/5/88 72/5/72
f 89/5/89 105/5/105 104/5/104
f 89/5/89 104/5/104 88/5/88
f 105/5/105 112/5/112 104/5/104
f 9/5/9 26/5/26 25/5/25
f 9/5/9 25/5/25 12/5/12
f 26/5/26 42/5/42 41/5/41
f 26/5/26 41/5/41 25/5/25
f 42/5/42 58/5/58 57/5/57
f 42/5/42 57/5/57 41/5/41
f 58/5/58 74/5/74 73/5/73
f 58/5/58 73/5/73 57/5/57
f 74/5/74 90/5/90 89/5/89
f 74/5/74 89/5/89 73/5/73
f 90/5/90 106/5/106 105/5/105
f 90/5/90 105/5/105 89/5/89
f 106/5/106 109/5/109 112/5/112
f 106/5/106 112/5/112 105/5/105
f 27/5/27 26/5/26 9/5/9
f 27/5/27 43/5/43 42/5/42
f 27/5/27 42/5/42 26/5/26
f 43/5/43 59/5/59 58/5/58
f 43/5/43 58/5/58 42/5/42
f 59/5/59 75/5/75 74/5/74
f 59/5/59 74/5/74 58/5/58
f 75/5/75 91/5/91 90/5/90
f 75/5/75 90/5/90 74/5/74
f 91/5/91 107/5/107 106/5/106
f 91/5/91 106/5/106 90/5/90
f 107/5/107 109/5/109 106/5/106
f 28/5/28 27/5/27 9/5/9
f 28/5/28 44/5/44 43/5/43
f 28/5/28 43/5/43 27/5/27
f 44/5/44 60/5/60 59/5/59
f 44/5/44 59/5/59 43/5/43
f 60/5/60 76/5/76 75/5/75
f 60/5/60 75/5/75 59/5/59
f 76/5/76 92/5/92 91/5/91
f 76/5/76 91/5/91 75/5/75
f 92/5/92 108/5/108 107/5/107
f 92/5/92 107/5/107 91/5/91
f 108/5/108 109/5/109 107/5/107
f 13/5/13 28/5/28 9/5/9
f 13/5/13 29/5/29 44/5/44
f 13/5/13 44/5/44 28/5/28
f 29/5/29 45/5/45 60/5/60
f 29/5/29 60/5/60 44/5/44
f 45/5/45 61/5/61 76/5/76
f 45/5/45 76/5/76 60/5/60
f 61/5/61 77/5/77 92/5/92
f 61/5/61 92/5/92 76/5/76
f 77/5/77 93/5/93 108/5/108
f 77/5/77 108/5/108 92/5/92
f 93/5/93 109/5/109 108/5/108
f 110/5/110 111/5/111 112/5/112
f 110/5/110 112/5/112 109/5/109
f 12/5/12 11/5/11 10/5/10
f 12/5/12 10/5/10 9/5/9
# 216 faces, 5 coords texture

# End of File